<svg xmlns="http://www.w3.org/2000/svg" viewBox="0 0 850 260" font-family="Inter, -apple-system, sans-serif">
  <style>
    @import url('https://fonts.googleapis.com/css2?family=Inter:wght@400;500;600&amp;display=swap');
  </style>
  <defs>
    <filter id="shadow" x="-5%" y="-5%" width="110%" height="115%">
      <feDropShadow dx="0" dy="1" stdDeviation="2" flood-opacity="0.06"/>
    </filter>
    <marker id="arrow" viewBox="0 0 10 7" refX="10" refY="3.5" markerWidth="8" markerHeight="6" orient="auto-start-reverse">
      <path d="M0,0 L10,3.5 L0,7" fill="#B5B0AA"/>
    </marker>
  </defs>

  <rect width="850" height="260" fill="none"/>

  <!-- ==================== ROW 1 (left → right): ① → ② → ③ ==================== -->

  <!-- Step 1: Data Collection (accent — start) -->
  <rect x="20" y="20" width="230" height="80" rx="6" fill="#F0F7F7" stroke="#2D6A6A" stroke-width="1.5" filter="url(#shadow)"/>
  <circle cx="48" cy="42" r="7.5" fill="#2D6A6A"/>
  <text x="48" y="46" text-anchor="middle" fill="#FFFFFF" font-size="8.5" font-weight="600">1</text>
  <text x="60" y="46" fill="#1F1F1F" font-size="11.5" font-weight="600">Data Collection</text>
  <text x="60" y="66" fill="#5A5A5A" font-size="10">GD-Xray Welds, RIAWELC</text>
  <text x="60" y="80" fill="#5A5A5A" font-size="10">public radiographic datasets</text>

  <!-- Arrow ① → ② -->
  <line x1="250" y1="60" x2="300" y2="60" stroke="#B5B0AA" stroke-width="1.5" marker-end="url(#arrow)"/>

  <!-- Step 2: Image Preprocessing -->
  <rect x="300" y="20" width="230" height="80" rx="6" fill="#FFFFFF" stroke="#E8E5E1" stroke-width="1.2" filter="url(#shadow)"/>
  <circle cx="328" cy="42" r="7.5" fill="#2D6A6A"/>
  <text x="328" y="46" text-anchor="middle" fill="#FFFFFF" font-size="8.5" font-weight="600">2</text>
  <text x="340" y="46" fill="#1F1F1F" font-size="11.5" font-weight="600">Image Preprocessing</text>
  <text x="340" y="66" fill="#5A5A5A" font-size="10">Contrast → Median → Gaussian</text>
  <text x="340" y="80" fill="#5A5A5A" font-size="10">→ Wavelet filtering</text>

  <!-- Arrow ② → ③ -->
  <line x1="530" y1="60" x2="580" y2="60" stroke="#B5B0AA" stroke-width="1.5" marker-end="url(#arrow)"/>

  <!-- Step 3: Synthetic Data Generation (accent — core innovation) -->
  <rect x="580" y="20" width="230" height="80" rx="6" fill="#F0F7F7" stroke="#2D6A6A" stroke-width="1.5" filter="url(#shadow)"/>
  <circle cx="608" cy="42" r="7.5" fill="#2D6A6A"/>
  <text x="608" y="46" text-anchor="middle" fill="#FFFFFF" font-size="8.5" font-weight="600">3</text>
  <text x="620" y="46" fill="#1F1F1F" font-size="11.5" font-weight="600">Synthetic Data (CycleGAN)</text>
  <text x="620" y="66" fill="#5A5A5A" font-size="10">X-ray → RGB welding images</text>
  <text x="620" y="80" fill="#5A5A5A" font-size="10">Crack, porosity, spatter</text>

  <!-- ==================== TURN: ③ ↓ ④ (elbow connector) ==================== -->
  <path d="M695,100 L695,130 L135,130 L135,160" stroke="#B5B0AA" stroke-width="1.5" fill="none" marker-end="url(#arrow)"/>

  <!-- ==================== ROW 2 (left → right): ④ → ⑤ → ⑥ ==================== -->

  <!-- Step 4: Data Augmentation -->
  <rect x="20" y="160" width="230" height="80" rx="6" fill="#FFFFFF" stroke="#E8E5E1" stroke-width="1.2" filter="url(#shadow)"/>
  <circle cx="48" cy="182" r="7.5" fill="#2D6A6A"/>
  <text x="48" y="186" text-anchor="middle" fill="#FFFFFF" font-size="8.5" font-weight="600">4</text>
  <text x="60" y="186" fill="#1F1F1F" font-size="11.5" font-weight="600">Data Augmentation</text>
  <text x="60" y="206" fill="#5A5A5A" font-size="10">450 base → 1,462 training</text>
  <text x="60" y="220" fill="#5A5A5A" font-size="10">Flip, rotate, scale</text>

  <!-- Arrow ④ → ⑤ -->
  <line x1="250" y1="200" x2="300" y2="200" stroke="#B5B0AA" stroke-width="1.5" marker-end="url(#arrow)"/>

  <!-- Step 5: Two-stage Transfer Learning (accent — key technique) -->
  <rect x="300" y="160" width="230" height="80" rx="6" fill="#F0F7F7" stroke="#2D6A6A" stroke-width="1.5" filter="url(#shadow)"/>
  <circle cx="328" cy="182" r="7.5" fill="#2D6A6A"/>
  <text x="328" y="186" text-anchor="middle" fill="#FFFFFF" font-size="8.5" font-weight="600">5</text>
  <text x="340" y="186" fill="#1F1F1F" font-size="11.5" font-weight="600">Two-stage Transfer Learning</text>
  <text x="340" y="206" fill="#5A5A5A" font-size="10">COCO → Crater/Cracks</text>
  <text x="340" y="220" fill="#5A5A5A" font-size="10">→ Welding defects</text>

  <!-- Arrow ⑤ → ⑥ -->
  <line x1="530" y1="200" x2="580" y2="200" stroke="#B5B0AA" stroke-width="1.5" marker-end="url(#arrow)"/>

  <!-- Step 6: Detection & Evaluation (accent — endpoint) -->
  <rect x="580" y="160" width="230" height="80" rx="6" fill="#F0F7F7" stroke="#2D6A6A" stroke-width="1.5" filter="url(#shadow)"/>
  <circle cx="608" cy="182" r="7.5" fill="#2D6A6A"/>
  <text x="608" y="186" text-anchor="middle" fill="#FFFFFF" font-size="8.5" font-weight="600">6</text>
  <text x="620" y="186" fill="#1F1F1F" font-size="11.5" font-weight="600">Detection &amp; Evaluation</text>
  <text x="620" y="206" fill="#5A5A5A" font-size="10">YOLOv5s, mAP 87.5%</text>
  <text x="620" y="220" fill="#5A5A5A" font-size="10">Precision 90.3%, F1 87.6%</text>

</svg>
